<mxfile host="app.diagrams.net" modified="2021-10-24T11:57:12.827Z" agent="5.0 (Windows NT 10.0; Win64; x64) AppleWebKit/537.36 (KHTML, like Gecko) Chrome/94.0.4606.61 Safari/537.36" etag="sp9ZkAjgO2Ic2trWteoo" version="15.5.9" type="github">
  <diagram id="6a731a19-8d31-9384-78a2-239565b7b9f0" name="Page-1">
    <mxGraphModel dx="1496" dy="1589" grid="1" gridSize="10" guides="1" tooltips="1" connect="1" arrows="1" fold="1" page="1" pageScale="1" pageWidth="1169" pageHeight="827" background="none" math="0" shadow="0">
      <root>
        <mxCell id="0" />
        <mxCell id="1" parent="0" />
        <mxCell id="RLh_K0npVeqwI_KT521v-1785" value="" style="edgeStyle=orthogonalEdgeStyle;rounded=0;orthogonalLoop=1;jettySize=auto;html=1;" edge="1" parent="1" source="1749" target="RLh_K0npVeqwI_KT521v-1784">
          <mxGeometry relative="1" as="geometry">
            <Array as="points">
              <mxPoint x="240" y="345" />
              <mxPoint x="240" y="530" />
              <mxPoint x="360" y="530" />
            </Array>
          </mxGeometry>
        </mxCell>
        <mxCell id="RLh_K0npVeqwI_KT521v-1787" value="" style="edgeStyle=orthogonalEdgeStyle;rounded=0;orthogonalLoop=1;jettySize=auto;html=1;" edge="1" parent="1" source="1749" target="RLh_K0npVeqwI_KT521v-1786">
          <mxGeometry relative="1" as="geometry">
            <Array as="points">
              <mxPoint x="240" y="345" />
              <mxPoint x="240" y="180" />
            </Array>
          </mxGeometry>
        </mxCell>
        <mxCell id="RLh_K0npVeqwI_KT521v-1790" value="" style="edgeStyle=orthogonalEdgeStyle;rounded=0;orthogonalLoop=1;jettySize=auto;html=1;" edge="1" parent="1" source="1749" target="RLh_K0npVeqwI_KT521v-1789">
          <mxGeometry relative="1" as="geometry" />
        </mxCell>
        <mxCell id="1749" value="rust中的指针类型&lt;br&gt;" style="rounded=1;whiteSpace=wrap;html=1;shadow=0;labelBackgroundColor=none;strokeColor=none;strokeWidth=3;fillColor=#2F5B7C;fontFamily=Helvetica;fontSize=16;fontColor=#FFFFFF;align=center;fontStyle=1;spacing=5;arcSize=7;perimeterSpacing=2;" parent="1" vertex="1">
          <mxGeometry x="50" y="310" width="140" height="70" as="geometry" />
        </mxCell>
        <mxCell id="RLh_K0npVeqwI_KT521v-1784" value="" style="whiteSpace=wrap;html=1;rounded=1;shadow=0;fontSize=16;fontColor=#FFFFFF;fontStyle=1;strokeColor=none;strokeWidth=3;fillColor=#2F5B7C;spacing=5;arcSize=7;" vertex="1" parent="1">
          <mxGeometry x="310" y="490" width="120" height="60" as="geometry" />
        </mxCell>
        <mxCell id="RLh_K0npVeqwI_KT521v-1786" value="" style="whiteSpace=wrap;html=1;rounded=1;shadow=0;fontSize=16;fontColor=#FFFFFF;fontStyle=1;strokeColor=none;strokeWidth=3;fillColor=#2F5B7C;spacing=5;arcSize=7;" vertex="1" parent="1">
          <mxGeometry x="310" y="150" width="120" height="60" as="geometry" />
        </mxCell>
        <mxCell id="RLh_K0npVeqwI_KT521v-1789" value="" style="whiteSpace=wrap;html=1;rounded=1;shadow=0;fontSize=16;fontColor=#FFFFFF;fontStyle=1;strokeColor=none;strokeWidth=3;fillColor=#2F5B7C;spacing=5;arcSize=7;" vertex="1" parent="1">
          <mxGeometry x="310" y="315" width="120" height="60" as="geometry" />
        </mxCell>
      </root>
    </mxGraphModel>
  </diagram>
</mxfile>
